
<svg width="1440px" height="254px" viewBox="0 0 1440 254" version="1.1" xmlns="http://www.w3.org/2000/svg" xmlns:xlink="http://www.w3.org/1999/xlink">
    <g id="Page-1" stroke="none" stroke-width="1" fill="none" fill-rule="evenodd">
        <g id="right" transform="translate(720.000000, 126.854722) rotate(-141.000000) translate(-720.000000, -126.854722) translate(80.622645, -424.840595)" fill="#fff" fill-rule="nonzero">
            <path fill-opacity="0.1" d="M-80.6226448,678.550038 L-32.6226448,639.250038 C15.3773552,603.550038 111.377355,561.550038 207.377355,566.550038 C303.377355,571.550038 399.377355,625.550038 495.377355,641.250038 C591.377355,657.550038 687.377355,635.550038 783.377355,582.550038 C879.377355,529.550038 975.377355,443.550038 1071.37736,427.850038 C1167.37736,411.550038 1263.37736,465.550038 1311.37736,491.850038 L1359.37736,518.550038 L1359.37736,678.550038 L1311.37736,678.550038 C1263.37736,678.550038 1167.37736,678.550038 1071.37736,678.550038 C975.377355,678.550038 879.377355,678.550038 783.377355,678.550038 C687.377355,678.550038 591.377355,678.550038 495.377355,678.550038 C399.377355,678.550038 303.377355,678.550038 207.377355,678.550038 C111.377355,678.550038 15.3773552,678.550038 -32.6226448,678.550038 L-80.6226448,678.550038 Z" id="Path" transform="translate(639.377355, 551.695316) rotate(-39.000000) translate(-639.377355, -551.695316) "></path>
        </g>
    </g>
</svg>
