
<svg width="799px" height="573px" viewBox="0 0 799 573" version="1.1" xmlns="http://www.w3.org/2000/svg" xmlns:xlink="http://www.w3.org/1999/xlink">
    <g id="Page-1" stroke="none" stroke-width="1" fill="none" fill-rule="evenodd">
        <g id="Home-Page" transform="translate(-641.000000, -461.000000)" fill="#D8E3FF">
            <g id="Profile" transform="translate(2.000000, 142.000000)">
                <path d="M1272.03336,320.053198 C1342.17336,323.419912 1399.69044,372.041684 1426.4249,436.204835 C1450.95563,495.078976 1431.20755,591.363796 1406.55703,655.930746 C1381.90652,720.497696 1311.7661,786.680566 1254.92744,826.478657 C1086.31839,944.537702 814.229915,874.907264 738.976096,826.478657 C736.087903,824.619998 671.434826,764.814543 669.449241,761.453195 C643.382481,717.3254 608.207533,624.30586 693.853062,584.014627 C762.762644,551.596683 914.326286,569.168577 999.645544,535.522902 C1035.99738,521.187545 1039.03336,512.461748 1054.34993,499.570096 C1069.66651,486.678444 1068.20258,466.514486 1078.29015,436.204835 C1108.64355,345.003385 1158.27797,314.592948 1272.03336,320.053198 Z" id="Triangle"></path>
            </g>
        </g>
    </g>
</svg>